# xmcd
#
# Track frame offsets:
# 150
# 12542
# 22857
# 35477
# 49100
# 59980
# 71792
# 82062
# 92867
# 105612
# 116007
# 127840
# 139527
# 152595
# 163835
# 176472
# 188095
# 201260
# 212415
# 224102
# 234670
# 247360
# 260455
# 272117
# 285875
# 299985
# 315250
#
# Disc length: 4386 seconds
#
# Revision: 0
# Processed by: cddbd v1.4PL0 Copyright (c) Steve Scherf et al.
# Submitted via: Audion 3.0.2 (http://www.panic.com/audion/)
#
DISCID=a111201b
DTITLE=Martha Reeves and the Vandellas - Dance pary - Watchout !
DYEAR=1900
DGENRE=
TTITLE0=Dancing in the street
TTITLE1=Dancing slow
TTITLE2=Wild one
TTITLE3=Nowhere to run
TTITLE4=Nobody'll care
TTITLE5=There he is (at my door)
TTITLE6=Mobile lil the dancing witch
TTITLE7=Dance party
TTITLE8=Motoring
TTITLE9=The jerk
TTITLE10=Mickey's monkey
TTITLE11=Hitch hike
TTITLE12=I'm ready for love
TTITLE13=One way out
TTITLE14=Jimmy mack
TTITLE15=Let this day be
TTITLE16=Keep it up
TTITLE17=Happiness is guaranteed
TTITLE18=I'll follow you
TTITLE19=No more tearstained make up
TTITLE20=Go ahead and laugh
TTITLE21=What am I going to do without your love
TTITLE22=Tell me I'll never be alone
TTITLE23=He doesn't love her anymore
TTITLE24=Third finger, lef hand (stereo mix)
TTITLE25=Can't break the habit (stereo mix)
TTITLE26=No more tearstained make up (alternative mix)
EXTD=
EXTT0=
EXTT1=
EXTT2=
EXTT3=
EXTT4=
EXTT5=
EXTT6=
EXTT7=
EXTT8=
EXTT9=
EXTT10=
EXTT11=
EXTT12=
EXTT13=
EXTT14=
EXTT15=
EXTT16=
EXTT17=
EXTT18=
EXTT19=
EXTT20=
EXTT21=
EXTT22=
EXTT23=
EXTT24=
EXTT25=
EXTT26=
PLAYORDER=
